# xmcd
#
# Track frame offsets: 
#        150
#        21151
#        38628
#        53705
#        67207
#        80109
#        96611
#        112286
#        128411
#        145663
#        162315
#        176642
#        191044
#        208071
#        223373
#        237550
#        255777
#        268829
#        282856
#        296958
#
# Disc length: 4122 seconds
#
# Revision: 0
# Processed by: cddbd v1.5.1PL2 Copyright (c) Steve Scherf et al.
# Submitted via: ExactAudioCopy v0.95a5
#
DISCID=46101814
DTITLE=鄧麗君 - 酒廊情歌 第二輯 HDCD
DYEAR=1900
DGENRE=Blues
TTITLE0=何日君再來
TTITLE1=一廉幽夢
TTITLE2=海角天涯
TTITLE3=祈禱
TTITLE4=離情依依
TTITLE5=我沒有騙你
TTITLE6=煙雨斜陽
TTITLE7=奈何
TTITLE8=說聲對不起
TTITLE9=我怎麼哭了
TTITLE10=蒙蒙細雨憶當年
TTITLE11=昨夜星辰
TTITLE12=酒醉的探戈
TTITLE13=當做沒有愛過
TTITLE14=海誓山盟
TTITLE15=真情
TTITLE16=雲河
TTITLE17=人約黃昏後
TTITLE18=我怎能離開你
TTITLE19=愛你在心口難開
EXTD=
EXTT0=
EXTT1=
EXTT2=
EXTT3=
EXTT4=
EXTT5=
EXTT6=
EXTT7=
EXTT8=
EXTT9=
EXTT10=
EXTT11=
EXTT12=
EXTT13=
EXTT14=
EXTT15=
EXTT16=
EXTT17=
EXTT18=
EXTT19=
PLAYORDER=
